<svg width="160" height="16" viewBox="0 0 160 16" xmlns="http://www.w3.org/2000/svg">
            <path d="M7.846.511H5.1L0 15.394h2.186l1.725-5.205h5.021l1.766 5.205h2.185L7.866.566l-.02-.055zm.56 7.838H4.416L6.4 2.432 8.407 8.35zm24.771 7.17V.534h2.14v14.983h-2.14zM47.68 11.89V.535h2.086v14.983h-2.068l-.025-.039-7.508-11.295v11.334h-2.172V.535h2.11l7.577 11.356zM59.645.748c-.8-.197-1.654-.213-2.392-.213H52.44v14.983h3.96c1.344 0 2.881-.043 4.11-.573 3.061-1.307 3.703-4.575 3.703-7.086 0-2.258-.594-6.184-4.569-7.111zm2.453 7.048c0 2.896-.896 4.724-2.664 5.434-.782.309-1.91.351-3.013.351h-1.904V2.451h2.897c3.064 0 4.684 1.848 4.684 5.345zM78.055.536c-4.118 0-6.884 3.01-6.884 7.491 0 3.729 2.153 7.491 6.966 7.491 4.154 0 6.947-3.027 6.947-7.532 0-4.526-2.76-7.45-7.029-7.45zm4.843 7.286c0 2.835-1.256 5.864-4.781 5.864-2.302 0-4.761-1.52-4.761-5.783 0-3.363 1.884-5.535 4.801-5.535 3.275 0 4.741 2.74 4.741 5.454zm4.861 7.696V.535h9.632v2h-7.47v4.334h6.822v1.916H89.92v6.733h-2.162zm39.043-6.446V.535h2.161v8.807c0 1.086-.03 2.32-.4 3.243-.525 1.338-1.819 2.933-5.011 2.933-2.367 0-4.044-.71-4.982-2.109-.844-1.264-.844-3.094-.844-4.564V.535h2.162v8.62c0 1.844 0 4.368 3.436 4.368 3.209 0 3.478-2.297 3.478-4.45zm5.372 6.446V.535h2.14v14.983h-2.14zm19.717-1.937H160v1.937h-10.167V.535h9.926v2.02h-7.868V6.89h7.426v1.937h-7.426v4.754zM24.556 7.668l6.48 7.85H28.16L22.537 8.3h-.04v7.218h-2.163V.535h2.163v6.67h.04l5.316-6.67h2.651l-5.948 7.133zm111.899 2.905h2.306c.028 2.017 1.123 3.082 3.175 3.082 1.813 0 2.895-.854 2.895-2.282 0-1.526-1.063-1.863-3.277-2.422-2.948-.758-4.88-1.469-4.88-4.332 0-2.443 1.978-4.084 4.922-4.084 3.348 0 5.131 1.597 5.161 4.618h-2.265c-.03-1.816-1.043-2.775-2.937-2.775-1.564 0-2.575.791-2.575 2.016 0 1.398 1.062 1.817 3.317 2.382 2.846.716 4.86 1.447 4.86 4.372 0 2.656-2.057 4.37-5.24 4.37-3.443 0-5.43-1.8-5.462-4.945zM109.303.535c3.287 0 5.429 1.722 5.747 4.61h-2.425c-.307-1.662-1.485-2.577-3.322-2.577-2.603 0-4.22 2.123-4.22 5.54 0 3.444 1.578 5.582 4.12 5.582 2.378 0 3.698-1.487 3.717-4.19v-.079h-3.66v-1.89h5.759v7.721H113.1v-1.8h-.16l-.023.038c-.765 1.27-2.357 2.028-4.258 2.028-3.65 0-5.918-2.84-5.918-7.41 0-4.67 2.515-7.573 6.56-7.573z" id="a" class="akog-c-header__logo-path" fill="#000000"></path>
        </svg>